<?xml version="1.0" encoding="UTF-8"?>
<!DOCTYPE svg PUBLIC "-//W3C//DTD SVG 1.1//EN" "http://www.w3.org/Graphics/SVG/1.1/DTD/svg11.dtd">
<!-- Creator: CorelDRAW -->
<svg xmlns="http://www.w3.org/2000/svg" xml:space="preserve" width="400px" height="400px" style="shape-rendering:geometricPrecision; text-rendering:geometricPrecision; image-rendering:optimizeQuality; fill-rule:evenodd; clip-rule:evenodd"
viewBox="0 0 400 400"
 xmlns:xlink="http://www.w3.org/1999/xlink">
 <defs>
  <style type="text/css">
   <![CDATA[
    .fil0 {fill:#84C225}
    .fil1 {fill:white;fill-rule:nonzero}
   ]]>
  </style>
 </defs>
 <g id="Ebene_x0020_1">
  <metadata id="CorelCorpID_0Corel-Layer"/>
  <rect class="fil0" width="400" height="400"/>
  <path class="fil1" d="M54.8576 101.325l24.1016 0 0 -28.5567 27.9485 0 0 -22.8874 -27.9485 0 0 -28.5567 -24.1016 0 0 28.5567 -27.9485 0 0 22.8874 27.9485 0 0 28.5567zm12.0508 0m12.0508 -14.2784m13.9748 -14.2784m13.9736 -11.4437m-13.9736 -11.4437m-13.9748 -14.2784m-12.0508 -14.2784m-12.0508 14.2784m-13.9748 14.2784m-13.9736 11.4437m13.9736 11.4437m13.9748 14.2784"/>
  <path class="fil1" d="M193.548 202.352c0,11.4792 -4.57914,21.0615 -13.7693,28.7741 -8.82876,7.41261 -19.3737,11.1189 -31.6075,11.1189 -12.3236,0 -23.4721,-3.91654 -33.4749,-11.7508l3.61536 -17.2949c8.46616,10.0028 18.1689,15.0048 29.0457,15.0048 8.19569,0 15.2162,-2.3504 21.1217,-7.05119 6.35789,-5.06103 9.52207,-11.4496 9.52207,-19.1634 0,-9.70159 -4.7008,-17.3244 -14.1319,-22.8685 -8.7071,-4.33938 -17.4154,-8.67758 -26.1237,-12.9567 -9.3697,-5.90552 -14.041,-14.1307 -14.041,-24.7075 0,-8.25592 3.3756,-15.065 10.1551,-20.4886 6.35671,-5.06221 13.8296,-7.59332 22.4174,-7.59332 6.80907,0 13.6796,1.92874 20.5784,5.81576l-3.46418 15.5469c-5.51458,-4.82009 -10.9984,-7.23072 -16.4221,-7.23072 -4.57914,0 -8.58663,1.23544 -11.9918,3.70631 -3.70631,2.77205 -5.57363,6.29647 -5.57363,10.6051 0,5.03269 3.19371,9.49136 9.55041,13.3181 5.51458,2.53111 11.028,5.06221 16.5118,7.59332 8.64805,4.06772 15.0355,8.46616 19.1634,13.2272 5.93623,6.83978 8.91852,15.6378 8.91852,26.3953z"/>
  <polygon id="1" class="fil1" points="268.695,114.429 232.146,244.986 195.688,114.429 210.693,114.429 232.146,199.067 253.689,114.429 "/>
  <path id="12" class="fil1" d="M336.67 242.245l-5.90552 0c-18.2599,0 -33.8375,-6.32718 -46.793,-19.0122 -12.9272,-12.6851 -19.4044,-27.8717 -19.4044,-45.4985 0,-17.6563 6.44765,-32.8123 19.3737,-45.4371 12.926,-12.6248 28.5036,-18.9225 46.8237,-18.9225 0.813781,0 2.80158,0.120473 5.90552,0.361418l0 14.1012c-2.71182,-0.210237 -4.67009,-0.330709 -5.90552,-0.330709 -14.0717,0 -26.093,4.88032 -36.0674,14.6433 -9.97325,9.76183 -14.9445,21.6343 -14.9445,35.5843 0,12.3544 3.97796,23.2016 11.9622,32.5713 7.95474,9.34136 18.0178,15.0662 30.1312,17.1154l0 -68.8501 14.824 0 0 83.6742z"/>
  <path id="123" class="fil1" d="M140.152 339.076c0,5.26182 -2.09882,9.65317 -6.31064,13.1882 -4.04646,3.39686 -8.88073,5.09529 -14.4874,5.09529 -5.64804,0 -10.7575,-1.79528 -15.3425,-5.38584l1.65827 -7.92639c3.87993,4.58505 8.32679,6.87757 13.3122,6.87757 3.75591,0 6.97324,-1.07717 9.68033,-3.2315 2.91379,-2.31969 4.36418,-5.24765 4.36418,-8.78269 0,-4.44686 -2.15433,-7.94057 -6.47718,-10.4823 -3.99095,-1.9878 -7.98191,-3.97678 -11.9729,-5.93741 -4.2945,-2.70709 -6.43584,-6.47718 -6.43584,-11.3244 0,-3.78426 1.54725,-6.90474 4.65473,-9.39096 2.91379,-2.31969 6.33781,-3.47953 10.2744,-3.47953 3.12048,0 6.2693,0.883466 9.43112,2.66575l-1.5874 7.1256c-2.52756,-2.20985 -5.04095,-3.31418 -7.526,-3.31418 -2.1,0 -3.93662,0.565749 -5.49686,1.69843 -1.69843,1.26969 -2.55473,2.88544 -2.55473,4.86025 0,2.3067 1.46339,4.35001 4.37717,6.10395 2.52756,1.15984 5.05513,2.32087 7.56852,3.48072 3.96261,1.86378 6.89056,3.87993 8.78269,6.06261 2.72008,3.13465 4.0878,7.16694 4.0878,12.0969z"/>
  <path id="1234" class="fil1" d="M177.742 341.466c0,4.33584 -1.61575,8.07876 -4.83308,11.1992 -3.21733,3.13465 -7.11143,4.69489 -11.6693,4.69489 -4.52954,0 -8.42364,-1.56024 -11.6693,-4.69489 -3.24449,-3.12048 -4.87442,-6.8634 -4.87442,-11.1992l0 -42.6863 6.7949 0 0 42.6863c0,2.66457 0.966144,4.92993 2.88544,6.76655 1.93347,1.85079 4.22599,2.7756 6.8634,2.7756 2.66575,0 4.95828,-0.924805 6.85041,-2.7756 1.90512,-1.83662 2.85827,-4.10198 2.85827,-6.76655l0 -42.6863 6.79371 0 0 42.6863z"/>
  <path id="12345" class="fil1" d="M209.255 317.506c0,4.97127 -1.79528,9.25277 -5.38466,12.8433 -3.57757,3.60355 -7.95474,5.50985 -13.1055,5.73072l0 20.7142 -6.7949 0 0 -58.0147 6.03544 0c5.30198,0 9.84569,1.85079 13.6016,5.56537 3.77009,3.70158 5.64804,8.09293 5.64804,13.161zm-6.79371 0c0,-3.28701 -1.14685,-6.10395 -3.4252,-8.46616 -2.27835,-2.36103 -5.03977,-3.64489 -8.27128,-3.86576l0 24.5941c3.2315,-0.220867 5.99293,-1.49055 8.27128,-3.82442 2.27835,-2.33386 3.4252,-5.13781 3.4252,-8.43781z"/>
  <path id="123456" class="fil1" d="M239.07 317.506c0,4.97127 -1.79528,9.25277 -5.38466,12.8433 -3.57757,3.60355 -7.95474,5.50985 -13.1055,5.73072l0 20.7142 -6.7949 0 0 -58.0147 6.03544 0c5.30198,0 9.84569,1.85079 13.6016,5.56537 3.77009,3.70158 5.64804,8.09293 5.64804,13.161zm-6.79371 0c0,-3.28701 -1.14685,-6.10395 -3.4252,-8.46616 -2.27835,-2.36103 -5.03977,-3.64489 -8.27128,-3.86576l0 24.5941c3.2315,-0.220867 5.99293,-1.49055 8.27128,-3.82442 2.27835,-2.33386 3.4252,-5.13781 3.4252,-8.43781z"/>
  <path id="1234567" class="fil1" d="M303.009 327.793c0,8.07876 -2.95512,15.039 -8.87955,20.8536 -5.92442,5.8134 -13.0642,8.71301 -21.4323,8.71301 -8.38348,0 -15.5363,-2.89961 -21.4607,-8.71301 -5.92442,-5.81458 -8.87955,-12.7748 -8.87955,-20.8536 0,-8.09175 2.95512,-15.0378 8.87955,-20.8241 5.92442,-5.78623 13.0772,-8.67285 21.4607,-8.67285 8.36813,0 15.5079,2.88662 21.4323,8.67285 5.92442,5.78623 8.87955,12.7323 8.87955,20.8241zm-6.96025 0c0,-6.39332 -2.27835,-11.8347 -6.83623,-16.3087 -4.5567,-4.47402 -10.0666,-6.71104 -16.5154,-6.71104 -6.43584,0 -11.9457,2.23701 -16.5166,6.71104 -4.57088,4.47402 -6.8634,9.91537 -6.8634,16.3087 0,6.40867 2.29252,11.8772 6.8634,16.3784 4.57088,4.50237 10.0807,6.75356 16.5166,6.75356 6.42049,0 11.9173,-2.25119 16.4882,-6.75356 4.57088,-4.50119 6.8634,-9.9697 6.8634,-16.3784z"/>
  <path id="12345678" class="fil1" d="M334.743 356.794l-7.60868 0 -11.9315 -20.6315 0 20.6315 -6.7949 0 0 -58.0147 3.48072 0c5.28899,0 9.80435,1.85079 13.5331,5.56537 3.74174,3.70158 5.6067,8.09293 5.6067,13.161 0,3.27284 -0.870474,6.35198 -2.59607,9.25277 -1.72678,2.89961 -4.10198,5.20513 -7.11261,6.9319l13.4233 23.1036zm-10.5921 -39.2883c0,-2.7756 -0.842128,-5.26182 -2.51339,-7.44332 -1.67126,-2.18268 -3.81142,-3.64607 -6.43466,-4.40552l0 23.628c2.65158,-0.75945 4.79174,-2.20985 6.463,-4.37717 1.65709,-2.15433 2.48504,-4.62639 2.48504,-7.40198z"/>
  <polygon id="123456789" class="fil1" points="355.554,305.174 347.655,305.174 347.655,356.794 340.86,356.794 340.86,305.174 332.933,305.174 332.933,298.779 355.554,298.779 "/>
 </g>
</svg>
